HIERARCHY
ROOT root
{
	OFFSET 0.000000 0.000000 0.000000
	CHANNELS 6 Xposition Yposition Zposition Zrotation Yrotation Xrotation
	JOINT lhip
	{
		OFFSET 0.058581 -0.082280 -0.017664
		CHANNELS 3 Zrotation Yrotation Xrotation
		JOINT lknee
		{
			OFFSET 0.043451 -0.386469 0.008037
			CHANNELS 3 Zrotation Yrotation Xrotation
			JOINT lankle
			{
				OFFSET -0.014790 -0.426874 -0.037428
				CHANNELS 3 Zrotation Yrotation Xrotation
				JOINT ltoe
				{
					OFFSET 0.041054 -0.060286 0.122042
					CHANNELS 3 Zrotation Yrotation Xrotation
					End Site
					{
						OFFSET 0.000000 0.000000 0.000000
					}
				}
			}
		}
	}
	JOINT rhip
	{
		OFFSET -0.060310 -0.090513 -0.013543
		CHANNELS 3 Zrotation Yrotation Xrotation
		JOINT rknee
		{
			OFFSET -0.043257 -0.383688 -0.004843
			CHANNELS 3 Zrotation Yrotation Xrotation
			JOINT rankle
			{
				OFFSET 0.019056 -0.420046 -0.034562
				CHANNELS 3 Zrotation Yrotation Xrotation
				JOINT rtoe
				{
					OFFSET -0.034840 -0.062106 0.130323
					CHANNELS 3 Zrotation Yrotation Xrotation
					End Site
					{
						OFFSET 0.000000 0.000000 0.000000
					}
				}
			}
		}
	}
	JOINT lowerback
	{
		OFFSET 0.004439 0.124404 -0.038385
		CHANNELS 3 Zrotation Yrotation Xrotation
		JOINT upperback
		{
			OFFSET 0.004488 0.137956 0.026820
			CHANNELS 3 Zrotation Yrotation Xrotation
			JOINT chest
			{
				OFFSET -0.002265 0.056032 0.002855
				CHANNELS 3 Zrotation Yrotation Xrotation
				JOINT lowerneck
				{
					OFFSET -0.013390 0.211636 -0.033468
					CHANNELS 3 Zrotation Yrotation Xrotation
					JOINT upperneck
					{
						OFFSET 0.010113 0.088937 0.050410
						CHANNELS 3 Zrotation Yrotation Xrotation
						End Site
						{
							OFFSET 0.000000 0.000000 0.000000
						}
					}
				}
				JOINT lclavicle
				{
					OFFSET 0.071702 0.114000 -0.018898
					CHANNELS 3 Zrotation Yrotation Xrotation
					JOINT lshoulder
					{
						OFFSET 0.122921 0.045205 -0.019046
						CHANNELS 3 Zrotation Yrotation Xrotation
						JOINT lelbow
						{
							OFFSET 0.255332 -0.015649 -0.022946
							CHANNELS 3 Zrotation Yrotation Xrotation
							JOINT lwrist
							{
								OFFSET 0.265709 0.012698 -0.007375
								CHANNELS 3 Zrotation Yrotation Xrotation
								End Site
								{
									OFFSET 0.000000 0.000000 0.000000
								}
							}
						}
					}
				}
				JOINT rclavicle
				{
					OFFSET -0.082954 0.112472 -0.023707
					CHANNELS 3 Zrotation Yrotation Xrotation
					JOINT rshoulder
					{
						OFFSET -0.113228 0.046853 -0.008472
						CHANNELS 3 Zrotation Yrotation Xrotation
						JOINT relbow
						{
							OFFSET -0.260127 -0.014369 -0.031269
							CHANNELS 3 Zrotation Yrotation Xrotation
							JOINT rwrist
							{
								OFFSET -0.269108 0.006794 -0.006027
								CHANNELS 3 Zrotation Yrotation Xrotation
								End Site
								{
									OFFSET 0.000000 0.000000 0.000000
								}
							}
						}
					}
				}
			}
		}
	}
}
MOTION
Frames: 7
Frame Time: 0.033333
0.374967 0.174440 0.989926 87.191381 0.258433 89.987489 6.796499 3.983978 2.343455 -3.749299 -1.638622 2.912776 0.445769 9.355561 -5.906680 0.000000 -0.000000 0.000000 -7.076222 -3.890637 -2.691603 0.534480 -0.452884 10.176139 5.464702 -5.963365 -8.192417 0.000000 -0.000000 0.000000 -5.202072 4.468124 -2.000984 2.288496 -1.603182 9.079620 0.075329 0.138417 -4.024268 4.186384 2.360624 2.339503 4.519206 -2.807909 3.460794 -27.821127 -1.768787 -2.098622 -54.155316 -6.966462 19.891337 -1.012887 -20.152895 12.911360 -7.278423 -12.605914 10.954550 31.190141 3.356920 2.880158 53.597437 4.203311 17.394279 -6.791858 26.369362 2.182108 4.421857 10.108769 3.670613 
0.374605 0.174558 0.989914 87.192379 0.269099 90.021854 6.794995 3.953920 2.270547 -3.746215 -1.628982 2.953507 0.385852 9.418251 -5.952431 0.000000 -0.000000 0.000000 -7.050283 -3.866410 -2.772527 0.512532 -0.438342 10.220052 5.478245 -6.000468 -8.190640 0.000000 -0.000000 0.000000 -5.182202 4.436864 -1.886616 2.246621 -1.522689 8.786907 0.121878 0.194596 -3.918639 4.150093 2.355190 2.187669 4.479664 -2.811309 3.698811 -27.726465 -1.864518 -2.102665 -54.281092 -6.903052 19.842852 -0.988509 -20.164345 12.932475 -7.489767 -12.659691 11.037131 31.062035 3.439876 2.956251 53.772320 4.084194 17.372474 -7.022549 26.364467 2.044867 4.704144 10.244514 3.710042 
0.374168 0.174620 0.989975 87.207230 0.281689 90.035049 6.822104 3.937730 2.223604 -3.782674 -1.610432 2.979335 0.354257 9.386844 -5.956031 0.000000 -0.000000 0.000000 -7.059442 -3.929777 -2.781729 0.542576 -0.411034 10.174791 5.483605 -5.989881 -8.149193 0.000000 -0.000000 0.000000 -5.198855 4.450242 -1.812889 2.259775 -1.505447 8.599054 0.161203 0.135539 -3.806181 4.177247 2.409992 2.083739 4.429482 -2.741712 3.760960 -27.673507 -1.751852 -2.165878 -54.381199 -6.976053 19.799736 -1.027605 -20.182292 13.184712 -7.584106 -12.606433 10.980609 31.044523 3.137095 2.792917 53.789636 4.269402 17.278454 -6.914457 26.390899 2.404780 4.950237 10.119775 3.894678 
0.373561 0.174926 0.989991 87.193544 0.274849 90.051181 6.794122 3.929642 2.162763 -3.780596 -1.610448 3.017383 0.395752 9.441831 -5.946557 0.000000 -0.000000 0.000000 -7.065938 -3.879418 -2.852331 0.518811 -0.426894 10.212350 5.487068 -6.002406 -8.119026 0.000000 -0.000000 0.000000 -5.146030 4.456593 -1.726795 2.174256 -1.471348 8.613093 0.136650 0.234318 -3.983469 4.180377 2.445003 2.160785 4.553100 -2.808429 3.732878 -27.545345 -1.934887 -2.057972 -54.490923 -6.856312 19.887115 -0.972522 -20.257429 12.937710 -7.729653 -12.647571 10.931169 30.754711 3.729369 3.245160 54.180009 3.979700 17.498409 -7.212808 26.360073 1.714092 4.587865 10.370332 3.517104 
0.373418 0.174969 0.989993 87.198826 0.277223 90.052294 6.797266 3.929338 2.153111 -3.784335 -1.617712 3.015631 0.392614 9.437911 -5.935074 0.000000 -0.000000 0.000000 -7.067888 -3.881508 -2.860714 0.525380 -0.432943 10.212223 5.483386 -6.006350 -8.111184 0.000000 -0.000000 0.000000 -5.142507 4.453013 -1.721127 2.170552 -1.471292 8.596235 0.137947 0.227395 -3.983030 4.184086 2.458449 2.165676 4.548778 -2.792836 3.736320 -27.545101 -1.927335 -2.053303 -54.493576 -6.852658 19.890305 -0.971611 -20.266206 12.949682 -7.735020 -12.642637 10.929255 30.742397 3.735330 3.247369 54.199915 3.980578 17.516094 -7.210973 26.346126 1.723718 4.590684 10.361066 3.501617 
0.373074 0.175110 0.989912 87.209567 0.289799 90.072475 6.822270 3.941449 2.128201 -3.807842 -1.649619 2.977291 0.413577 9.408019 -5.874281 0.000000 -0.000000 0.000000 -7.063081 -3.882505 -2.902118 0.545490 -0.399633 10.207429 5.476733 -6.029615 -8.087081 0.000000 -0.000000 0.000000 -5.122808 4.452800 -1.715835 2.207572 -1.463565 8.423138 0.147932 0.166203 -3.847889 4.100810 2.461291 2.171702 4.510478 -2.695103 3.779132 -27.615538 -1.808952 -2.073811 -54.456052 -6.946382 19.851838 -1.060309 -20.229536 13.157898 -7.722200 -12.592391 10.878460 30.849430 3.306579 2.915494 54.047433 4.112371 17.450706 -6.975795 26.414682 2.357401 4.886821 10.131696 3.597719 
0.372773 0.175327 0.989877 87.225922 0.270858 90.057277 6.796377 3.956288 2.132739 -3.813216 -1.661303 2.957792 0.404394 9.413148 -5.850200 0.000000 -0.000000 0.000000 -7.091861 -3.878206 -2.899287 0.540834 -0.410865 10.199475 5.484909 -6.045150 -8.065690 0.000000 -0.000000 0.000000 -5.112601 4.430394 -1.694528 2.192279 -1.459202 8.405937 0.126786 0.188705 -3.815236 4.101056 2.446606 2.121575 4.526717 -2.680769 3.848890 -27.587935 -1.808435 -2.086119 -54.508042 -7.011637 19.812742 -1.087045 -20.153807 13.127120 -7.701542 -12.651486 10.853284 30.906232 3.263201 2.921512 54.001087 4.238565 17.423885 -6.942156 26.398651 2.441699 4.953684 10.239633 3.690076 
